<?xml version="1.0" encoding="UTF-8"?>
<svg version="1.1" xmlns="http://www.w3.org/2000/svg" width="800" height="600">
<path d="M0 0 C264 0 528 0 800 0 C800 198 800 396 800 600 C536 600 272 600 0 600 C0 402 0 204 0 0 Z " fill="#0B0B0B" transform="translate(0,0)"/>
<path d="M0 0 C264 0 528 0 800 0 C800 198 800 396 800 600 C536 600 272 600 0 600 C0 402 0 204 0 0 Z M70 73 C69.06220703 73.82564453 69.06220703 73.82564453 68.10546875 74.66796875 C59.18154646 82.82640787 51.89620722 95.40991298 50.63019669 107.54454029 C50.48876729 111.69221272 50.47068754 115.82285325 50.49879456 119.97203064 C50.49489606 121.57339949 50.48925124 123.17476487 50.48202366 124.77612215 C50.46732958 129.15203719 50.47741409 133.52759016 50.49176037 137.90349329 C50.50290092 142.63228928 50.49091734 147.36103576 50.48191833 152.08982849 C50.46800451 161.34413032 50.4755285 170.59829545 50.49059392 179.85259073 C50.50747914 190.6364933 50.50424054 201.42036206 50.50049984 212.20427377 C50.49462458 231.45025631 50.50877933 250.69617338 50.53344727 269.94213867 C50.55736368 288.6039475 50.56445237 307.26566884 50.55395508 325.92749023 C50.54253686 346.26284884 50.54062725 366.59816702 50.55505317 386.93352515 C50.55657896 389.10340949 50.55809932 391.27329383 50.55961418 393.44317818 C50.560372 394.51071955 50.56112981 395.57826092 50.56191059 396.67815204 C50.56664668 404.18925386 50.56480674 411.70033759 50.56054878 419.21143913 C50.55561389 428.36982912 50.56164308 437.52813652 50.58144308 446.68650763 C50.59129143 451.35634981 50.59644681 456.02606642 50.58855057 460.69591522 C50.58146127 464.97622772 50.58837387 469.25628758 50.6061542 473.53656692 C50.61017775 475.07950526 50.60923426 476.62246686 50.60263533 478.16539633 C50.52122303 498.9942058 56.76038357 515.24772948 71.23828125 530.33203125 C81.2534505 539.95380596 92.62143371 545.62677175 106 549 C106.62984467 549.17665119 107.25968933 549.35330239 107.9086202 549.53530665 C110.07743996 550.01720674 111.98474286 550.12560235 114.20426428 550.12649983 C115.46097763 550.13063945 115.46097763 550.13063945 116.74307913 550.13486269 C117.66023295 550.13280737 118.57738678 550.13075205 119.52233315 550.12863445 C120.50320929 550.13038749 121.48408544 550.13214053 122.49468511 550.13394669 C125.80739387 550.13862775 129.12005914 550.13613577 132.43276978 550.13371277 C134.82147965 550.13557969 137.21018921 550.13787991 139.59889829 550.14057809 C144.80592723 550.14543298 150.01294763 550.14714834 155.21997833 550.14612198 C162.96321194 550.14459942 170.70643522 550.1487536 178.44966682 550.1539966 C193.08369969 550.16367826 207.71772906 550.16648117 222.35176475 550.16705366 C233.65307301 550.16751289 244.9543799 550.16956959 256.25568771 550.17275429 C259.50671335 550.17365181 262.75773899 550.17454163 266.00876462 550.17542917 C267.22103795 550.17576074 267.22103795 550.17576074 268.45780164 550.17609901 C291.19794503 550.18225524 313.93808794 550.18619937 336.67823219 550.18575573 C337.53597489 550.18574015 338.3937176 550.18572457 339.2774525 550.18570852 C343.62500815 550.18562541 347.9725638 550.18552637 352.32011946 550.18542381 C353.18358313 550.18540387 354.0470468 550.18538392 354.93667604 550.18536337 C356.68281194 550.18532294 358.42894784 550.18528114 360.17508374 550.18523798 C387.33759373 550.18462533 414.50009124 550.19212912 441.66259766 550.20581055 C472.16929393 550.22117001 502.67598201 550.22977682 533.18268239 550.22884732 C536.43559416 550.22877269 539.68850593 550.22872399 542.94141769 550.22869301 C544.14286826 550.22867553 544.14286826 550.22867553 545.36859056 550.22865769 C558.26132634 550.22862691 571.15405127 550.23501437 584.04678383 550.24362527 C597.0050334 550.2521009 609.96326711 550.25309244 622.92151792 550.24651595 C630.62016016 550.24281948 638.31875424 550.24465553 646.01739137 550.25445829 C651.76588892 550.26115947 657.51434176 550.2574074 663.26283614 550.24958507 C665.58858602 550.24804425 667.91434109 550.24988803 670.24008484 550.25544515 C673.40101541 550.26249803 676.56169786 550.25721703 679.72262001 550.24888897 C680.62572684 550.25385715 681.52883367 550.25882533 682.45930737 550.26394406 C697.41769087 550.18061624 710.29566845 545.27690587 722 536 C722.82242188 535.35417969 723.64484375 534.70835937 724.4921875 534.04296875 C737.14325279 523.42159151 746.88427839 508.30397664 750 492 C750.41773343 486.71345077 750.41475076 481.44682705 750.39440918 476.14859009 C750.39930542 474.56030897 750.4054986 472.97203142 750.41286707 471.38375986 C750.42919651 467.04405061 750.42696301 462.70452387 750.4214921 458.36479473 C750.41881327 453.67482997 750.43336959 448.98491291 750.44558716 444.29496765 C750.46660668 435.11656499 750.47118403 425.93822554 750.46939927 416.75980164 C750.46809001 409.2973528 750.47190417 401.83492363 750.47932434 394.37247849 C750.4814236 392.22033672 750.4835212 390.06819495 750.48561716 387.91605318 C750.48666069 386.84477195 750.48770422 385.77349073 750.48877937 384.66974644 C750.50766736 364.42470865 750.50663582 344.17970712 750.49981004 323.93466417 C750.4942344 305.42719042 750.5150635 286.91985508 750.54817051 268.41241367 C750.58192885 249.39275202 750.59707325 230.37315665 750.59245348 211.35346448 C750.59021113 200.68182617 750.59541794 190.01031582 750.62034607 179.33870316 C750.64138673 170.25423983 750.64492359 161.16997466 750.62604648 152.08550312 C750.61690613 147.453924 750.61569339 142.82271408 750.63640213 138.19116402 C750.65517905 133.94458727 750.6505341 129.69868036 750.62785631 125.45212857 C750.62368747 123.92262548 750.62781242 122.39307034 750.64145225 120.86362238 C750.80824949 100.77980992 741.79273444 86.12514674 728.140625 72.046875 C716.71443184 60.70563495 701.07619916 50.7521677 684.54505262 50.59733903 C683.17630046 50.60701674 683.17630046 50.60701674 681.77989674 50.61688995 C680.2865309 50.60945068 680.2865309 50.60945068 678.76299605 50.60186112 C675.43023044 50.58891796 672.09786631 50.59728588 668.76509094 50.60559082 C666.35016524 50.60070132 663.93524188 50.59451125 661.5203225 50.58713293 C656.27138384 50.57414489 651.02252399 50.57048148 645.77357483 50.57509232 C637.96788984 50.58193123 630.16229196 50.57165807 622.35661908 50.55813476 C607.6031964 50.53323139 592.84980993 50.52870545 578.0963696 50.53060073 C566.70177077 50.53197417 555.30718449 50.52815434 543.91258812 50.52067566 C542.27511322 50.51962532 540.63763831 50.5185777 539.0001634 50.5175328 C538.18731477 50.51701345 537.37446613 50.51649411 536.53698572 50.51595903 C535.72264168 50.51543888 534.90829764 50.51491874 534.06927651 50.51438284 C533.25355992 50.51385885 532.43784332 50.51333486 531.59740804 50.51279498 C508.65542234 50.49821222 485.71344124 50.48992891 462.771451 50.49454498 C461.90664209 50.49471694 461.04183318 50.49488889 460.15081794 50.49506606 C455.76770896 50.49595494 451.3846 50.49689975 447.00149105 50.49786407 C446.13100622 50.4980551 445.2605214 50.49824613 444.36365825 50.49844296 C442.60332588 50.49883005 440.84299352 50.49922038 439.08266115 50.49961393 C411.69773241 50.50558268 384.3128882 50.49015101 356.92797852 50.45800781 C326.15348119 50.42191661 295.37903746 50.40260019 264.60451764 50.40754652 C261.321842 50.40801649 258.03916636 50.40842674 254.75649071 50.40879822 C253.94822695 50.4089006 253.13996319 50.40900299 252.3072066 50.40910848 C240.11476128 50.41030246 227.92237394 50.39834709 215.72994423 50.37965393 C201.8592251 50.3583978 187.98862743 50.35458647 174.11790285 50.37395352 C166.35999786 50.38426554 158.60238932 50.38084615 150.84451125 50.35742267 C145.04498264 50.34146792 139.24573371 50.35177991 133.44622984 50.37214369 C131.10508023 50.3763308 128.76389691 50.37212582 126.42278294 50.35854775 C102.62154524 50.229937 87.47656019 56.31644254 70 73 Z " fill="#000000" transform="translate(0,0)"/>
<path d="M0 0 C2.41924405 -0.00576689 4.83848371 -0.0137118 7.25771427 -0.02363622 C12.50064443 -0.04011689 17.74334025 -0.04119832 22.9862709 -0.02840042 C30.78289854 -0.00942109 38.57931023 -0.01919114 46.3759366 -0.03444196 C60.3038219 -0.06072347 74.23159227 -0.05850759 88.15948841 -0.04404739 C100.34821005 -0.03145541 112.53688964 -0.02819272 124.72561646 -0.03416061 C125.53502157 -0.03454254 126.34442668 -0.03492446 127.17835922 -0.03531796 C130.46423459 -0.03687473 133.75010994 -0.03846674 137.03598526 -0.04011678 C167.84204106 -0.05540197 198.6480238 -0.04156007 229.45406832 -0.0146323 C256.8062507 0.00909466 284.15831668 0.00697147 311.51049805 -0.01693726 C342.26123432 -0.04372702 373.01190607 -0.05431783 403.7626524 -0.03887594 C407.04244167 -0.03727242 410.32223096 -0.03570821 413.60202026 -0.03416061 C414.40955152 -0.03376523 415.21708277 -0.03336984 416.04908467 -0.03296247 C428.22830766 -0.02728196 440.40748392 -0.03391369 452.58670044 -0.04655838 C466.43901048 -0.06086865 480.29118793 -0.05725084 494.14348149 -0.03015466 C501.89029369 -0.01549997 509.63681855 -0.01447573 517.38362314 -0.03338553 C523.17470421 -0.04595908 528.96548987 -0.03226924 534.75652492 -0.00851266 C537.09415517 -0.00294032 539.43182402 -0.00573994 541.76942933 -0.0178916 C565.48408993 -0.13168516 582.33869041 6.20126439 599.48022461 22.88491821 C613.86758845 37.62830125 620.63909417 51.82105196 620.55149841 72.24581909 C620.55567521 73.83237355 620.56115462 75.41892503 620.56781822 77.00547099 C620.58224655 81.34970469 620.57803627 85.69374825 620.57065141 90.03799224 C620.56591548 94.7293511 620.57843346 99.42066907 620.58866882 104.11201477 C620.60585472 113.29738072 620.60669714 122.48267825 620.60145592 131.6680561 C620.59741204 139.13627287 620.59886038 146.60446944 620.60420418 154.07268524 C620.6049526 155.13622651 620.60570102 156.19976778 620.60647212 157.29553758 C620.60800363 159.45625427 620.60954198 161.61697096 620.61108709 163.77768764 C620.62481177 184.0360724 620.61937501 204.29441853 620.60790188 224.55280241 C620.59797299 243.07331791 620.6109043 261.59373345 620.63483607 280.11423352 C620.65923865 299.14287043 620.66883187 318.17146082 620.66218334 337.20011306 C620.65869326 347.87846644 620.66090912 358.556743 620.67843437 369.23508453 C620.69317095 378.32689707 620.6937729 387.41857869 620.67636346 396.5103887 C620.66786248 401.14595371 620.66568177 405.78128499 620.68101501 410.41683769 C620.69489934 414.66711614 620.69005114 418.91696145 620.67077578 423.16721508 C620.66702685 424.69812157 620.66990556 426.22906307 620.68038743 427.75993827 C620.80940386 448.0593357 613.34592693 464.51752685 599.57348633 479.21157837 C596.06912665 482.7499256 592.18383639 485.71570235 588.16381836 488.63491821 C587.5953418 489.1028479 587.02686523 489.57077759 586.44116211 490.05288696 C575.93375177 498.44332519 563.08663411 499.79031822 550.16046715 499.76913929 C549.17617401 499.77149152 548.19188087 499.77384375 547.17776066 499.77626726 C543.87747828 499.78292752 540.57723554 499.78249994 537.27694702 499.78208923 C534.88763546 499.78538969 532.49832445 499.78911564 530.10901415 499.79323071 C524.22976746 499.80218865 518.35052785 499.80647499 512.47127578 499.80874968 C505.42739879 499.8117175 498.38353173 499.82041821 491.33965996 499.82916396 C474.31723154 499.84998412 457.2948014 499.86047377 440.27236322 499.86929357 C432.21741431 499.87350297 424.16246614 499.87872451 416.10751785 499.8839781 C388.52645006 499.9018649 360.94538204 499.91686086 333.36430931 499.92429829 C331.63359043 499.92477304 329.90287155 499.92524893 328.17215268 499.92572595 C327.31388914 499.92596232 326.45562561 499.9261987 325.57135409 499.92644224 C321.2231065 499.92764341 316.87485891 499.92885887 312.52661133 499.93008423 C311.23223876 499.93044445 311.23223876 499.93044445 309.91171725 499.93081196 C281.93196879 499.93870544 253.95226272 499.96214004 225.97253276 499.99464017 C196.37995652 500.02895089 166.78740507 500.04865049 137.1948086 500.05194253 C133.94525757 500.05236006 130.69570656 500.05283962 127.44615555 500.05336571 C126.64604419 500.0534889 125.84593284 500.05361209 125.02157569 500.05373902 C112.15586745 500.05606927 99.29020852 500.0717192 86.42451785 500.09220755 C73.48908089 500.11247997 60.55370306 500.11793611 47.61825316 500.10843692 C39.93814836 500.10322779 32.25824069 500.10907159 24.57816434 500.13097159 C18.83652708 500.1461037 13.09506194 500.14021603 7.35342868 500.12630107 C5.03579946 500.12392137 2.7181512 500.12826723 0.40055113 500.14012972 C-11.67218457 500.19808141 -22.4321982 500.0413375 -33.83618164 495.63491821 C-34.55751742 495.35995445 -35.2788532 495.08499069 -36.02204764 494.80169469 C-54.54646643 487.09862387 -68.25479111 472.24869989 -75.96899414 453.94741821 C-78.15747509 447.65819142 -78.95992287 441.53279327 -78.97319603 434.8734045 C-78.97584786 434.2152872 -78.97849968 433.5571699 -78.98123187 432.87910965 C-78.98888441 430.67635495 -78.98948248 428.47365636 -78.99008179 426.27088928 C-78.99409907 424.67455233 -78.99853773 423.0782164 -79.00336134 421.48188168 C-79.01530284 417.09672584 -79.02096965 412.71158098 -79.0255425 408.32641208 C-79.03150769 403.59615605 -79.04311513 398.86591309 -79.05383301 394.13566589 C-79.07833434 382.7134644 -79.09297997 371.29125858 -79.10589308 359.86903891 C-79.10960639 356.6420959 -79.1135795 353.41515331 -79.11764574 350.18821073 C-79.14288147 330.1417895 -79.16493069 310.09536758 -79.17737389 290.04893398 C-79.18030349 285.40759211 -79.18326517 280.76625026 -79.1862793 276.12490845 C-79.18702535 274.97135296 -79.1877714 273.81779747 -79.18854006 272.62928576 C-79.2011929 253.94367502 -79.23441669 235.25815946 -79.27608113 216.5725932 C-79.31852185 197.38133925 -79.34207131 178.190134 -79.34729445 158.99883324 C-79.3507059 148.2265023 -79.36243011 137.45432015 -79.39539719 126.68203545 C-79.42342804 117.507803 -79.4343836 108.33374988 -79.42320172 99.15947794 C-79.41802309 94.48134182 -79.42085018 89.80358106 -79.44566727 85.12549973 C-79.46823139 80.83618481 -79.46736475 76.54751332 -79.4484634 72.25818659 C-79.44567341 70.71304849 -79.45120585 69.16786609 -79.46627633 67.62279897 C-79.6324665 49.46258024 -72.91157005 35.45080717 -60.33618164 22.57241821 C-55.6516115 17.95375721 -50.76094131 13.79657014 -45.33618164 10.07241821 C-44.7928418 9.69141968 -44.24950195 9.31042114 -43.68969727 8.9178772 C-29.8258082 -0.06214186 -15.98352084 -0.08308774 0 0 Z M-25.14868164 41.94741821 C-25.94661133 42.55585571 -26.74454102 43.16429321 -27.56665039 43.79116821 C-28.3155957 44.39960571 -29.06454102 45.00804321 -29.83618164 45.63491821 C-30.55418945 46.20210571 -31.27219727 46.76929321 -32.01196289 47.35366821 C-33.6764106 48.71457937 -35.26555461 50.16672338 -36.83618164 51.63491821 C-36.83618164 52.29491821 -36.83618164 52.95491821 -36.83618164 53.63491821 C-37.44075195 53.6903479 -38.04532227 53.74577759 -38.66821289 53.80288696 C-41.06522424 54.4705381 -41.06522424 54.4705381 -42.28540039 56.99819946 C-42.89834961 58.45806274 -42.89834961 58.45806274 -43.52368164 59.94741821 C-43.94004883 60.91292603 -44.35641602 61.87843384 -44.78540039 62.87319946 C-46.46186609 67.2793751 -46.96207031 70.87741638 -46.96760941 75.60931492 C-46.97145055 76.84013406 -46.9752917 78.07095321 -46.97924924 79.3390699 C-46.978469 80.70710033 -46.97759021 82.0751307 -46.97662354 83.44316101 C-46.97920725 84.89482894 -46.98222043 86.34649617 -46.98562694 87.7981624 C-46.9936997 91.79264738 -46.99548667 95.78711439 -46.9962244 99.78160655 C-46.99807452 104.08785858 -47.00562174 108.39410127 -47.01235962 112.7003479 C-47.02594632 122.11996941 -47.03196844 131.53958667 -47.03637028 140.95921636 C-47.03913263 146.84159577 -47.04337002 152.72397355 -47.04787445 158.60635185 C-47.0600685 174.89422153 -47.07036693 191.18208989 -47.07374954 207.46996403 C-47.07396911 208.51262313 -47.07418867 209.55528224 -47.07441489 210.62953707 C-47.07463317 211.67469126 -47.07485145 212.71984545 -47.07507634 213.79667097 C-47.07551981 215.91454701 -47.07596637 218.03242304 -47.07641602 220.15029907 C-47.07663745 221.20083867 -47.07685888 222.25137826 -47.07708701 223.33375239 C-47.08103345 240.34921757 -47.09848216 257.36463989 -47.12177554 274.38008852 C-47.14549975 291.8513917 -47.15795191 309.32267339 -47.15911746 326.79399294 C-47.16003372 336.60268165 -47.16577351 346.41131454 -47.18393707 356.21998787 C-47.19935261 364.57414315 -47.20445001 372.92822535 -47.19619897 381.28239215 C-47.19229736 385.54297338 -47.19319803 389.80340752 -47.20725632 394.06397057 C-47.22002486 397.96948152 -47.21877197 401.87473532 -47.20666561 405.78024607 C-47.20471368 407.18812156 -47.20776359 408.59601545 -47.21650997 410.00386513 C-47.30706439 425.57401642 -43.90302739 439.05814295 -32.99243164 450.59976196 C-19.68267269 463.16205257 -4.51056395 463.21915281 12.77243042 463.14958191 C15.0827021 463.15491091 17.3929703 463.16197863 19.70323193 463.17062896 C26.03404729 463.18923606 32.3646284 463.18295778 38.69545341 463.17247593 C44.82744433 463.1642404 50.95940485 463.17869577 57.09138307 463.19053092 C70.40319836 463.21543237 83.71494243 463.21736196 97.02677423 463.20925681 C108.67756857 463.20217789 120.3283353 463.20213253 131.97912979 463.2091198 C133.54330585 463.21003114 135.1074819 463.2109419 136.67165796 463.21185208 C139.02886994 463.21323525 141.38608193 463.21462634 143.74329389 463.21603822 C165.65180666 463.22901466 187.56031019 463.23413871 209.46882439 463.22250462 C210.29428088 463.22206665 211.11973738 463.22162867 211.97020771 463.22117743 C218.67304854 463.21757078 225.37588925 463.21373592 232.07872995 463.2098865 C258.2222031 463.19504011 284.36557176 463.20381817 310.5090332 463.23184204 C339.89809322 463.2632849 369.28709141 463.27823522 398.67616856 463.26804203 C401.81107083 463.26700529 404.94597311 463.26601806 408.0808754 463.26505852 C409.23866891 463.26468519 409.23866891 463.26468519 410.41985219 463.26430432 C422.06014479 463.26086745 433.7003827 463.27015818 445.34066391 463.28582954 C458.58183564 463.30361545 471.82287445 463.30370518 485.06404053 463.28047789 C491.818188 463.26909429 498.57207032 463.26617307 505.32621002 463.28477859 C511.51321046 463.30160235 517.69974293 463.29520566 523.88671316 463.27056181 C526.12077247 463.26568446 528.35486966 463.26917783 530.58889721 463.28204925 C546.79109019 463.36863686 560.79383006 462.41463736 573.16381836 450.63491821 C573.70264648 450.13605103 574.24147461 449.63718384 574.79663086 449.12319946 C582.58127254 441.03287814 587.27928021 429.68001398 587.29803944 418.55867767 C587.30249728 417.33058427 587.30695512 416.10249087 587.31154805 414.83718252 C587.31145877 413.47740268 587.31126893 412.11762284 587.31098938 410.75784302 C587.31429001 409.31086202 587.318016 407.86388193 587.32213086 406.41690302 C587.33213642 402.43994236 587.33586533 398.46299679 587.33852017 394.48602533 C587.34242754 390.19679277 587.35200561 385.90757212 587.36073303 381.61834717 C587.38048573 371.2591386 587.39056236 360.89992908 587.39946082 350.5407064 C587.40384588 345.66002575 587.40921214 340.77934618 587.41444969 335.89866638 C587.43146115 319.66995214 587.4459546 303.44123857 587.45319843 287.21251678 C587.45510827 283.00208027 587.45702861 278.79164377 587.45898438 274.58120728 C587.45946812 273.53474842 587.45995186 272.48828956 587.46045025 271.41011983 C587.46874786 254.46395386 587.4940806 237.51785854 587.52656505 220.5717234 C587.55965809 203.16591991 587.57764924 185.7601523 587.58084267 168.35431719 C587.58300574 158.58468272 587.5917246 148.81515126 587.61730385 139.04554749 C587.63904155 130.72403191 587.64704619 122.40264437 587.63733707 114.08110362 C587.63280119 109.83844998 587.63463686 105.59606035 587.65409851 101.35344315 C587.67179442 97.46198976 587.67068096 93.57099172 587.65520122 89.67953306 C587.65283483 88.27905114 587.65709792 86.87853715 587.66902987 85.47810405 C587.74684812 75.73343463 587.34623463 64.74676032 580.91381836 56.88491821 C580.00631836 56.14241821 579.09881836 55.39991821 578.16381836 54.63491821 C576.94646799 53.18410339 575.73916565 51.72483184 574.53881836 50.25991821 C567.67682426 42.50625257 558.27432874 36.60024656 547.83427807 35.3576519 C545.34341788 35.25305435 542.86839262 35.23722616 540.37541485 35.25739479 C539.42651289 35.25303447 538.47761093 35.24867415 537.49995437 35.24418169 C534.32596942 35.23324895 531.15242099 35.24363846 527.97843933 35.25396729 C525.67758328 35.25050994 523.37672889 35.24574486 521.07587796 35.23978555 C514.75725622 35.22725629 508.43877032 35.23345484 502.12014806 35.24274421 C496.00422797 35.25029625 489.88832151 35.24084113 483.77240525 35.23330211 C470.49197011 35.21751069 457.21157828 35.21887192 443.93113902 35.22753885 C432.30729658 35.23508733 420.68347001 35.23705479 409.05962563 35.23347092 C408.28840428 35.23324176 407.51718293 35.23301261 406.72259123 35.23277651 C403.59187134 35.23184248 400.46115145 35.23088728 397.33043158 35.22989722 C367.96212695 35.22072049 338.59384989 35.22903967 309.22554951 35.24518791 C283.14302734 35.25942043 257.06054912 35.25815437 230.97802734 35.24380493 C201.66775679 35.2277336 172.35751061 35.22137556 143.04723626 35.23064172 C139.92131031 35.23160385 136.79538435 35.23254238 133.66945839 35.23347092 C132.899788 35.23370815 132.13011761 35.23394538 131.33712388 35.2341898 C119.72368144 35.23759957 108.11025663 35.23361624 96.49681664 35.22603226 C83.28701653 35.21744876 70.07726649 35.21961097 56.86747261 35.23587449 C50.12783027 35.24389886 43.38828247 35.24684995 36.64863968 35.23692703 C30.47714806 35.22797811 24.30582809 35.23291657 18.13435201 35.24885969 C15.903603 35.25220666 13.67283946 35.25051534 11.44209983 35.24323232 C-7.84884103 34.61629992 -7.84884103 34.61629992 -25.14868164 41.94741821 Z " fill="#ABABAB" transform="translate(129.836181640625,50.365081787109375)"/>
<path d="M0 0 C1.42379852 0.35172517 2.84822666 0.70091711 4.2734375 1.046875 C17.17762842 4.4036155 29.0768606 10.40129433 40 18 C40.56460938 18.35578125 41.12921875 18.7115625 41.7109375 19.078125 C46.66279978 22.32170291 49.64779477 26.17709688 53 31 C54.31174468 32.77139291 55.62429058 34.54219269 56.9375 36.3125 C72 57.19263862 72 57.19263862 72 66 C72.66 66 73.32 66 74 66 C78.24258107 80.40632964 79.31186697 94.19901368 79.375 109.125 C79.38651093 110.26719498 79.38651093 110.26719498 79.39825439 111.4324646 C79.60839634 137.58740549 79.60839634 137.58740549 74 146 C73.36709421 148.64382011 72.79289604 151.27562377 72.25 153.9375 C70.57018932 161.68964407 67.98703326 168.10243245 64 175 C63.34 175 62.68 175 62 175 C61.73960937 175.72058594 61.47921875 176.44117188 61.2109375 177.18359375 C52.38658327 197.70733375 30.47449991 211.25236052 10.73828125 219.3359375 C-23.4762006 232.21025792 -80.62008755 238.79330415 -116 227 C-116.15020952 198.09859092 -116.29531452 169.19716041 -116.4332476 140.29568997 C-116.44951948 136.88714925 -116.4658351 133.47860874 -116.48217773 130.07006836 C-116.48543066 129.39146112 -116.48868358 128.71285387 -116.49203508 128.01368278 C-116.54487856 117.01154846 -116.60126834 106.00943502 -116.6589582 95.00732518 C-116.71803138 83.72642338 -116.77324269 72.4455072 -116.82505554 61.16456932 C-116.85429749 54.82476443 -116.88532822 48.48497935 -116.92053413 42.14520454 C-116.95357408 36.18556269 -116.98196888 30.22591727 -117.00670624 24.26623535 C-117.01665039 22.0719562 -117.02833308 19.87768417 -117.04183006 17.683424 C-117.05991851 14.70163253 -117.07191289 11.71987912 -117.08229065 8.73805237 C-117.08909444 7.85771995 -117.09589823 6.97738752 -117.10290819 6.07037836 C-117.10671802 4.04663176 -117.05924425 2.02288283 -117 0 C-114.95784819 -2.04215181 -110.9588213 -1.678166 -108.1484375 -1.97265625 C-107.32316055 -2.06043335 -106.49788361 -2.14821045 -105.64759827 -2.23864746 C-70.8900541 -5.83966968 -34.10694263 -9.3182324 0 0 Z " fill="#8A8A8A" transform="translate(537,185)"/>
<path d="M0 0 C13.53 0 27.06 0 41 0 C41 30.36 41 60.72 41 92 C47.77402344 91.98839844 54.54804688 91.97679687 61.52734375 91.96484375 C65.80664158 91.9597371 70.08593567 91.95492333 74.36523438 91.95117188 C81.16464005 91.94518303 87.96403232 91.93808162 94.76342773 91.92456055 C100.24229136 91.91373304 105.72114062 91.90772346 111.20001411 91.90512276 C113.29529611 91.90326826 115.39057728 91.89964718 117.4858532 91.89426994 C120.40977584 91.88706132 123.33363833 91.88600898 126.25756836 91.88647461 C127.57062958 91.8810817 127.57062958 91.8810817 128.91021729 91.87557983 C134.88594784 91.88594784 134.88594784 91.88594784 136 93 C136.33 62.31 136.66 31.62 137 0 C177 0 177 0 179 1 C178.67 76.9 178.34 152.8 178 231 C164.47 231 150.94 231 137 231 C137 198 137 165 137 131 C105.32 131 73.64 131 41 131 C41 164 41 197 41 231 C27.14 231 13.28 231 -1 231 C-1.02258499 201.71638292 -1.04049804 172.43276716 -1.05106533 143.14914316 C-1.0523161 139.69553879 -1.05361042 136.24193443 -1.05493164 132.78833008 C-1.05519395 132.10075099 -1.05545626 131.4131719 -1.05572652 130.70475709 C-1.06008327 119.55713832 -1.06797084 108.40952468 -1.0771528 97.26190896 C-1.08648921 85.83182861 -1.09198068 74.40175245 -1.09408849 62.97166818 C-1.09539604 56.54803777 -1.09848461 50.12441901 -1.10573006 43.70079231 C-1.11248627 37.66233707 -1.11461778 31.62389835 -1.11310768 25.58543968 C-1.11338419 23.36214229 -1.11539167 21.13884437 -1.11920547 18.91555023 C-1.12413649 15.89432741 -1.12300049 12.87316808 -1.12025452 9.85194397 C-1.12316736 8.9599387 -1.1260802 8.06793344 -1.12908131 7.14889771 C-1.11412121 1.11412121 -1.11412121 1.11412121 0 0 Z " fill="#8F8F8F" transform="translate(195,182)"/>
<path d="M0 0 C0.69626999 -0.00573532 1.39253998 -0.01147064 2.10990906 -0.01737976 C4.34825887 -0.02954428 6.58587263 -0.02345289 8.82421875 -0.01171875 C9.58871338 -0.00889893 10.35320801 -0.0060791 11.14086914 -0.00317383 C30.48734703 0.10445327 45.11973979 2.64590756 62.51171875 11.30078125 C62.51171875 11.96078125 62.51171875 12.62078125 62.51171875 13.30078125 C63.23617187 13.54828125 63.960625 13.79578125 64.70703125 14.05078125 C73.42848066 17.9377782 79.68374814 26.33648191 84.51171875 34.30078125 C84.98480469 35.08066406 85.45789063 35.86054688 85.9453125 36.6640625 C92.71809469 48.94349847 92.9954384 62.29017755 92.82421875 75.92578125 C92.81861938 76.71426453 92.81302002 77.5027478 92.80725098 78.31512451 C92.55709411 113.32732762 92.55709411 113.32732762 86.51171875 124.30078125 C86.09019531 125.11289062 85.66867187 125.925 85.234375 126.76171875 C80.2008637 135.82482774 72.17638574 147.03955495 62.01171875 150.48828125 C60.27921875 150.89046875 60.27921875 150.89046875 58.51171875 151.30078125 C55.2231078 152.14556685 55.2231078 152.14556685 52.51171875 153.30078125 C52.18171875 154.29078125 51.85171875 155.28078125 51.51171875 156.30078125 C48.703125 157.3984375 48.703125 157.3984375 45.07421875 158.36328125 C43.16962891 158.86988281 43.16962891 158.86988281 41.2265625 159.38671875 C22.31275057 164.04059046 6.00304991 163.30078125 -14.48828125 163.30078125 C-14.48828125 110.17078125 -14.48828125 57.04078125 -14.48828125 2.30078125 C-8.93193694 0.7132543 -5.55286579 0.03759771 0 0 Z " fill="#000000" transform="translate(477.48828125,215.69921875)"/>
<path d="M0 0 C71.72743826 -0.66670721 71.72743826 -0.66670721 97 13 C97.84949219 13.44601563 98.69898438 13.89203125 99.57421875 14.3515625 C103.88129285 16.67239912 107.9812919 19.20437697 112 22 C112.56460938 22.35578125 113.12921875 22.7115625 113.7109375 23.078125 C118.66279978 26.32170291 121.64779477 30.17709688 125 35 C126.31174468 36.77139291 127.62429058 38.54219269 128.9375 40.3125 C144 61.19263862 144 61.19263862 144 70 C144.66 70 145.32 70 146 70 C150.24258107 84.40632964 151.31186697 98.19901368 151.375 113.125 C151.38651093 114.26719498 151.38651093 114.26719498 151.39825439 115.4324646 C151.60839634 141.58740549 151.60839634 141.58740549 146 150 C145.13964653 153.48479303 144.38189625 156.96998653 143.67578125 160.48828125 C142.55397234 165.65954672 141.0770597 169.6546182 138 174 C135.25 175.4375 135.25 175.4375 133 176 C131.84906075 174.5665848 130.70441965 173.12811091 129.5625 171.6875 C128.60537109 170.48673828 128.60537109 170.48673828 127.62890625 169.26171875 C126 167 126 167 125 164 C124.278125 163.278125 123.55625 162.55625 122.8125 161.8125 C118.55611319 157.55611319 114.13664007 153.07561178 113 147 C112.34 147 111.68 147 111 147 C108.36146884 145.04281106 106.59933398 142.86038239 105 140 C104.9309082 137.65283203 104.9309082 137.65283203 105.30078125 135.0703125 C108.32501338 109.74788513 107.04939097 82.54992679 91.0625 61.625 C86.91358017 56.69221937 82.60771468 52.55353215 77.0625 49.25 C76.381875 48.8375 75.70125 48.425 75 48 C75 47.34 75 46.68 75 46 C74.11828125 45.72027344 73.2365625 45.44054687 72.328125 45.15234375 C69.34383484 44.1190508 66.604531 42.90212639 63.75 41.5625 C54.57170082 37.69555859 44.56520624 36.43741432 34.6875 35.62109375 C24.96198185 34.75926537 24.96198185 34.75926537 21.9609375 32.390625 C20.22123041 30.03861876 19 27.98384347 19 25 C18.13375 24.690625 18.13375 24.690625 17.25 24.375 C14.15522364 22.48374778 12.8081237 20.09964063 11 17 C11 16.34 11 15.68 11 15 C10.34 15 9.68 15 9 15 C5.42218135 11.54177417 2.22455632 7.44911265 0 3 C0 2.01 0 1.02 0 0 Z " fill="#C5C5C5" transform="translate(465,181)"/>
<path d="M0 0 C18.04850618 -0.86097114 32.90285255 2.989481 49 11 C49 11.66 49 12.32 49 13 C49.72445312 13.2475 50.44890625 13.495 51.1953125 13.75 C59.91676191 17.63699695 66.17202939 26.03570066 71 34 C71.47308594 34.77988281 71.94617188 35.55976563 72.43359375 36.36328125 C78.92469984 48.13202256 79.45509378 60.84322672 79.28125 73.94262695 C79.24980689 76.32714477 79.24023003 78.71099726 79.234375 81.09570312 C79.1965074 88.45033746 79.04076975 95.70621847 78 103 C77.72027344 102.39027344 77.44054687 101.78054688 77.15234375 101.15234375 C76.01654775 98.78122292 76.01654775 98.78122292 73.5625 96.5625 C71.14548094 94.14548094 69.6979189 91.93276902 68 89 C67.484375 88.505 66.96875 88.01 66.4375 87.5 C65 86 65 86 64 83.375 C63.505 82.199375 63.505 82.199375 63 81 C62.01 80.67 61.02 80.34 60 80 C58.4921875 78.35546875 58.4921875 78.35546875 56.875 76.1875 C56.27042969 75.383125 55.66585937 74.57875 55.04296875 73.75 C54.36878906 72.8425 53.69460938 71.935 53 71 C52.21238281 69.96875 51.42476562 68.9375 50.61328125 67.875 C44.27119031 59.54704025 44.27119031 59.54704025 42.86328125 56.70703125 C42.11697224 54.81001078 42.11697224 54.81001078 40 54 C40 53.01 40 52.02 40 51 C39.01 50.67 38.02 50.34 37 50 C36.66666667 48.66666667 36.33333333 47.33333333 36 46 C35.01 45.67 34.02 45.34 33 45 C31.68359375 43.40625 31.68359375 43.40625 30.4375 41.5 C28.68380605 38.74463406 28.68380605 38.74463406 26 37 C25.5359375 35.2675 25.5359375 35.2675 25.0625 33.5 C24.5365625 31.7675 24.5365625 31.7675 24 30 C23.01 29.67 22.02 29.34 21 29 C19.30859375 26.953125 19.30859375 26.953125 17.4375 24.25 C13.89399909 19.22347834 10.21465742 14.33953261 6.41381836 9.50488281 C4.03539789 6.45094313 1.91725757 3.36295665 0 0 Z " fill="#292929" transform="translate(491,216)"/>
<path d="M0 0 C1.42290354 -0.00570851 1.42290354 -0.00570851 2.87455261 -0.01153234 C6.04743754 -0.02182387 9.22014277 -0.01794642 12.3930397 -0.01409245 C14.69318257 -0.01854615 16.9933239 -0.02386063 19.29346299 -0.02996117 C25.61012088 -0.04413537 31.92672954 -0.04580457 38.24340105 -0.04536426 C44.35750232 -0.04587434 50.47158758 -0.05765424 56.58567834 -0.06805556 C71.40728326 -0.09276985 86.22887696 -0.10157537 101.05049965 -0.10659205 C101.81767005 -0.10685322 102.58484046 -0.1071144 103.37525845 -0.10738349 C104.14399287 -0.10764376 104.91272728 -0.10790404 105.70475669 -0.1081722 C114.22972088 -0.11125647 122.75468197 -0.11776187 131.27964401 -0.12438488 C157.03393146 -0.14402916 182.78821556 -0.16043592 208.54251099 -0.16326141 C209.36592503 -0.16335547 210.18933907 -0.16344954 211.03770505 -0.16354645 C214.37454611 -0.16392492 217.71138718 -0.16428892 221.04822825 -0.16464943 C223.55967012 -0.16492114 226.07111199 -0.16519782 228.58255386 -0.16547489 C229.41243024 -0.16556291 230.24230662 -0.16565094 231.09733077 -0.16574163 C257.17316764 -0.16864714 283.24893039 -0.19074569 309.32474136 -0.22699833 C338.62879559 -0.26773821 367.93279931 -0.29142007 397.2368834 -0.29172093 C400.36254645 -0.29181775 403.48820949 -0.29198447 406.61387253 -0.29220104 C407.38347549 -0.29224516 408.15307846 -0.29228927 408.94600273 -0.29233472 C421.32184192 -0.29345379 433.69760673 -0.31085087 446.07342199 -0.33402036 C458.51472172 -0.35688016 470.95592114 -0.36107694 483.39723417 -0.34647106 C490.13504327 -0.33904504 496.87257974 -0.34018675 503.61036301 -0.36288166 C509.78138114 -0.3834684 515.95194408 -0.38087332 522.12295726 -0.36000682 C524.35238329 -0.35651147 526.58184215 -0.36142368 528.81122515 -0.37571125 C545.74595849 -0.4772257 558.39526256 1.01837314 571.2143898 13.26006222 C573.34633011 15.52444771 575.2813351 17.81830891 577.2143898 20.26006222 C576.8843898 20.92006222 576.5543898 21.58006222 576.2143898 22.26006222 C575.8843898 22.26006222 575.5543898 22.26006222 575.2143898 22.26006222 C574.8843898 22.92006222 574.5543898 23.58006222 574.2143898 24.26006222 C572.54772313 20.92672888 570.88105647 17.59339555 569.2143898 14.26006222 C567.8943898 14.26006222 566.5743898 14.26006222 565.2143898 14.26006222 C564.19334429 13.28156027 563.1937777 12.28025795 562.2143898 11.26006222 C560.11106089 10.54558579 560.11106089 10.54558579 558.2143898 10.26006222 C558.2143898 9.60006222 558.2143898 8.94006222 558.2143898 8.26006222 C556.8943898 7.93006222 555.5743898 7.60006222 554.2143898 7.26006222 C554.5443898 6.60006222 554.8743898 5.94006222 555.2143898 5.26006222 C554.2243898 5.26006222 553.2343898 5.26006222 552.2143898 5.26006222 C549.91342693 5.10783519 547.61268487 4.95226703 545.31204605 4.79521847 C532.44085785 3.98756962 519.54351123 3.90147772 506.6518898 3.69756222 C504.0796187 3.65426673 501.50735299 3.61064936 498.93509293 3.56670284 C492.69491586 3.4607814 486.45468411 3.35882197 480.2143898 3.26006222 C480.2143898 3.92006222 480.2143898 4.58006222 480.2143898 5.26006222 C475.1423828 5.30948587 470.07051587 5.3457929 464.99832535 5.3699255 C463.27271457 5.37998548 461.54712085 5.39363498 459.82156754 5.41094112 C457.3417884 5.43518976 454.86223458 5.44654523 452.38235855 5.45537472 C451.61038635 5.46569729 450.83841415 5.47601986 450.04304886 5.48665524 C446.22157504 5.48745643 444.47302873 5.43248817 441.2143898 3.26006222 C441.2143898 3.92006222 441.2143898 4.58006222 441.2143898 5.26006222 C438.9043898 5.26006222 436.5943898 5.26006222 434.2143898 5.26006222 C434.2143898 4.93006222 434.2143898 4.60006222 434.2143898 4.26006222 C423.3243898 3.76506222 423.3243898 3.76506222 412.2143898 3.26006222 C412.2143898 3.92006222 412.2143898 4.58006222 412.2143898 5.26006222 C409.63077462 5.31413788 407.04829725 5.35376922 404.4643898 5.38506222 C403.73478043 5.40182003 403.00517105 5.41857784 402.2534523 5.43584347 C398.4099274 5.4707846 395.46832208 5.43505906 392.2143898 3.26006222 C392.2143898 3.92006222 392.2143898 4.58006222 392.2143898 5.26006222 C391.66140339 5.09832547 391.10841698 4.93658873 390.5386734 4.76995087 C387.97060929 4.20658298 385.65510807 4.12047216 383.0258522 4.10184383 C381.97699844 4.09205502 380.92814468 4.0822662 379.84750748 4.07218075 C378.702397 4.06642529 377.55728653 4.06066982 376.37747574 4.05473995 C375.16744888 4.04484035 373.95742203 4.03494076 372.71072769 4.02474117 C369.39702594 3.99857623 366.08334799 3.9767048 362.76960659 3.95673919 C359.3049061 3.93484981 355.84024906 3.90747558 352.37558365 3.88068295 C345.8167035 3.83079594 339.25779919 3.78584233 332.69887185 3.74266058 C325.23093607 3.69325406 317.76304388 3.63834861 310.29515028 3.58298099 C294.93493709 3.46922224 279.57468379 3.36236994 264.2143898 3.26006222 C263.8843898 3.92006222 263.5543898 4.58006222 263.2143898 5.26006222 C262.5543898 4.60006222 261.8943898 3.94006222 261.2143898 3.26006222 C259.12536686 2.95504435 259.12536686 2.95504435 256.68024635 3.00279331 C255.23954783 2.99311997 255.23954783 2.99311997 253.76974428 2.98325121 C252.17581564 2.98789702 252.17581564 2.98789702 250.54968643 2.99263668 C248.86499927 2.98584001 248.86499927 2.98584001 247.14627802 2.97890604 C243.35692922 2.96617633 239.56772256 2.96788793 235.77835464 2.96953487 C233.07185697 2.96464491 230.36536948 2.95680769 227.65887833 2.94917965 C221.05371416 2.93254096 214.44858568 2.92706874 207.84340231 2.92595489 C202.47356623 2.92500541 197.10374195 2.92090013 191.73390961 2.91455364 C176.51308738 2.89693047 161.29229339 2.88771601 146.07146089 2.88921459 C145.2502827 2.8892945 144.42910452 2.88937441 143.58304214 2.88945675 C142.76086195 2.88953851 141.93868176 2.88962027 141.09158702 2.88970451 C127.77602552 2.89051687 114.46057729 2.8713946 101.14504854 2.84318002 C87.47630852 2.8144455 73.80762371 2.80064015 60.13885272 2.80236757 C52.46357802 2.80303146 44.78842194 2.79754016 37.11317444 2.77601147 C30.57556767 2.75779177 24.03813322 2.75345842 17.50051205 2.76703031 C14.16572244 2.77355733 10.83153286 2.7715114 7.4967308 2.75632381 C3.87785654 2.74091014 0.25985033 2.75015537 -3.35900497 2.7655859 C-4.40823973 2.75529877 -5.45747449 2.74501165 -6.53850424 2.73441279 C-15.52331313 2.81907376 -21.30867851 5.39882731 -27.7856102 11.63506222 C-30.7906587 14.47830041 -33.69945057 16.93944506 -37.1606102 19.19756222 C-42.47810077 23.05408568 -44.11736446 28.79213229 -45.32060885 35.03649271 C-45.77835892 38.20979355 -45.91322827 41.19556155 -45.91703796 44.39967442 C-45.92087911 45.61644198 -45.92472025 46.83320955 -45.9286778 48.08684886 C-45.92789766 49.42865449 -45.9270189 50.77046007 -45.92605209 52.11226559 C-45.9286374 53.54432294 -45.93165102 54.97637958 -45.93505549 56.40843523 C-45.94310933 60.33946309 -45.94491416 64.27047267 -45.94565296 68.20150781 C-45.94750634 72.44298525 -45.95505513 76.68445327 -45.96178818 80.92592525 C-45.97536068 90.19880592 -45.98139457 99.47168226 -45.98579884 108.74457121 C-45.98856317 114.536849 -45.99280088 120.32912512 -45.99730301 126.12140179 C-46.00949441 142.16486729 -46.01979388 158.20833146 -46.0231781 174.25180149 C-46.02350745 175.79155036 -46.02350745 175.79155036 -46.02384345 177.36240526 C-46.02406173 178.39133305 -46.02428001 179.42026084 -46.0245049 180.48036826 C-46.02494836 182.5652988 -46.02539493 184.65022934 -46.02584457 186.73515987 C-46.026066 187.76935308 -46.02628743 188.80354629 -46.02651557 189.86907868 C-46.0304625 206.62184713 -46.04791389 223.37457206 -46.0712041 240.1273237 C-46.0949338 257.33540217 -46.10738069 274.5434588 -46.10854602 291.75155389 C-46.10946188 301.40989737 -46.11519189 311.06818413 -46.13336563 320.72651196 C-46.14878848 328.95176622 -46.15387421 337.17694624 -46.14562753 345.40221222 C-46.14172872 349.59609834 -46.14261288 353.78983505 -46.15668488 357.98370266 C-46.16947005 361.82935705 -46.16818611 365.67475047 -46.15609416 369.52040474 C-46.15322776 371.55721871 -46.16503784 373.59403739 -46.17751622 375.63081515 C-46.12241479 385.93572859 -44.71286973 395.10943737 -39.7856102 404.26006222 C-39.7856102 405.25006222 -39.7856102 406.24006222 -39.7856102 407.26006222 C-38.7956102 407.59006222 -37.8056102 407.92006222 -36.7856102 408.26006222 C-35.2856102 409.78349972 -35.2856102 409.78349972 -33.7856102 411.63506222 C-31.88022642 413.96717257 -29.94801227 416.16201735 -27.7856102 418.26006222 C-32.06924244 418.26006222 -33.6427279 416.25614608 -36.7231102 413.44756222 C-44.94280496 404.72970414 -48.89666601 393.00888246 -48.92262459 381.17099762 C-48.92769913 379.94003752 -48.93277367 378.70907743 -48.93800199 377.44081551 C-48.93860361 376.07779447 -48.93910271 374.71477339 -48.93951035 373.35175228 C-48.9435271 371.90135898 -48.94796568 370.4509668 -48.9527899 369.00057596 C-48.96473765 365.01414654 -48.97039968 361.0277292 -48.97497106 357.0412854 C-48.98093404 352.74180713 -48.9925422 348.44234326 -49.00326157 344.14287472 C-49.02777055 333.75845063 -49.04241099 323.37402178 -49.05532163 312.98957768 C-49.05903482 310.05539881 -49.06300795 307.1212204 -49.0670743 304.187042 C-49.09231327 285.95747331 -49.11436154 267.72790384 -49.12680244 249.49832153 C-49.12973204 245.27689327 -49.13269371 241.05546503 -49.13570786 236.83403683 C-49.13645391 235.78484967 -49.13719996 234.73566251 -49.13796861 233.65468179 C-49.15061607 216.66714153 -49.18383181 199.67970608 -49.22550969 182.69221479 C-49.26797019 165.24233672 -49.29150227 147.79251224 -49.29672301 130.34258264 C-49.30013256 120.54885602 -49.31183392 110.75529316 -49.34482574 100.96161747 C-49.37288407 92.61888677 -49.38380028 84.27635342 -49.37263028 75.93357921 C-49.36745831 71.68061768 -49.37023463 67.42806906 -49.39509583 63.17516804 C-49.41771467 59.2730956 -49.41675186 55.37172963 -49.39789195 51.46964376 C-49.39510948 50.06644806 -49.4005918 48.66320314 -49.41570489 47.26008607 C-49.51604994 37.32760611 -47.95956088 29.24440166 -43.7856102 20.26006222 C-43.1256102 19.60006222 -42.4656102 18.94006222 -41.7856102 18.26006222 C-40.7956102 18.26006222 -39.8056102 18.26006222 -38.7856102 18.26006222 C-38.55100082 17.68256222 -38.31639145 17.10506222 -38.0746727 16.51006222 C-33.99074814 9.38175754 -24.56475839 3.94857652 -16.77636407 1.67301362 C-11.1199022 0.34686715 -5.79737821 -0.02554975 0 0 Z " fill="#333333" transform="translate(131.7856101989746,85.7399377822876)"/>
<path d="M0 0 C55.52496265 -0.01711233 111.04992556 -0.03303373 166.57489014 -0.04234314 C167.3962149 -0.0424812 168.21753965 -0.04261925 169.06375304 -0.04276149 C186.91183608 -0.04575416 204.75991915 -0.04852437 222.60800226 -0.05106533 C231.36025021 -0.0523127 240.11249815 -0.05360925 248.86474609 -0.05493164 C249.73571635 -0.0550624 250.6066866 -0.05519316 251.50404989 -0.05532788 C279.75264674 -0.05959191 308.0012416 -0.06710522 336.24983724 -0.07629722 C365.27038688 -0.0857233 394.29093542 -0.09188393 423.31148657 -0.09391499 C427.40711806 -0.09420316 431.50274955 -0.0945288 435.59838104 -0.09487724 C436.8075416 -0.09497838 436.8075416 -0.09497838 438.04112964 -0.09508156 C451.03568911 -0.0962649 464.03024517 -0.10090732 477.02480324 -0.10683203 C490.07753046 -0.11270985 503.13025428 -0.11497035 516.18298277 -0.11350138 C523.94506324 -0.11273876 531.70713133 -0.11478666 539.46920957 -0.12079754 C545.2544346 -0.1249729 551.03965099 -0.12397004 556.82487699 -0.12089889 C559.17351978 -0.12047392 561.52216359 -0.12176358 563.87080434 -0.12488318 C567.04818443 -0.1288603 570.22550261 -0.12675504 573.40288162 -0.12304783 C574.32770696 -0.12567484 575.2525323 -0.12830186 576.20538265 -0.13100848 C577.05005405 -0.12876118 577.89472545 -0.12651389 578.76499295 -0.1241985 C579.49186266 -0.12435448 580.21873237 -0.12451046 580.96762843 -0.12467116 C583.0850291 0.00521591 584.96285725 0.42214529 587 1 C587 1.66 587 2.32 587 3 C587.70125 3.12375 588.4025 3.2475 589.125 3.375 C592.21404477 4.04653147 595.07132669 4.80190637 598 6 C598.33 6.99 598.66 7.98 599 9 C596.54594597 8.02933361 594.11307561 7.05207545 591.71556211 5.94793296 C581.02553054 1.5937862 569.77200368 2.43985655 558.42401123 2.48101807 C556.00889122 2.47513898 553.59377495 2.46750994 551.1786654 2.458287 C545.93895715 2.44226952 540.69939059 2.43854269 535.45966911 2.44580269 C527.66851308 2.45653046 519.87750943 2.44428095 512.08637023 2.42743097 C498.97824501 2.39972735 485.87016813 2.39049776 472.7620163 2.39188385 C459.7877788 2.3931951 446.81358883 2.38624204 433.8393631 2.36830902 C433.0319478 2.36719763 432.2245325 2.36608624 431.39265008 2.36494118 C427.29201123 2.35925391 423.1913726 2.35341953 419.09073403 2.34752855 C390.06391197 2.30609295 361.03710178 2.28310021 332.01025391 2.27099609 C303.81525322 2.25919654 275.62027883 2.23901661 247.42529297 2.20751953 C246.55583669 2.20655158 245.6863804 2.20558363 244.79057696 2.20458635 C236.05895006 2.19485633 227.32732337 2.18495625 218.59569681 2.17493158 C200.8091806 2.15451498 183.02266322 2.13523331 165.23614502 2.11663818 C164.41839246 2.11578185 163.60063989 2.11492553 162.75810695 2.11404325 C108.17208565 2.05701226 53.5860436 2.02651852 -1 2 C-0.67 1.34 -0.34 0.68 0 0 Z " fill="#424242" transform="translate(110,49)"/>
<path d="M0 0 C-0.556875 0.21914062 -1.11375 0.43828125 -1.6875 0.6640625 C-10.82085145 4.4593403 -17.72670227 10.41345141 -25 17 C-25.928125 17.804375 -26.85625 18.60875 -27.8125 19.4375 C-33.23272413 25.78690541 -34.1217822 34.02727358 -34.13142776 42.1396122 C-34.13526891 43.35637976 -34.13911005 44.57314733 -34.1430676 45.82678664 C-34.14228746 47.16859227 -34.1414087 48.51039785 -34.14044189 49.85220337 C-34.1430272 51.28426073 -34.14604082 52.71631736 -34.1494453 54.14837301 C-34.15749913 58.07940087 -34.15930397 62.01041045 -34.16004276 65.94144559 C-34.16189614 70.18292303 -34.16944493 74.42439106 -34.17617798 78.66586304 C-34.18975048 87.93874371 -34.19578437 97.21162004 -34.20018864 106.48450899 C-34.20295297 112.27678678 -34.20719068 118.06906291 -34.21169281 123.86133957 C-34.22388421 139.90480507 -34.23418368 155.94826924 -34.2375679 171.99173927 C-34.23789725 173.53148814 -34.23789725 173.53148814 -34.23823325 175.10234305 C-34.23845153 176.13127083 -34.23866981 177.16019862 -34.2388947 178.22030604 C-34.23933816 180.30523658 -34.23978473 182.39016712 -34.24023438 184.47509766 C-34.2404558 185.50929086 -34.24067723 186.54348407 -34.24090537 187.60901646 C-34.2448523 204.36178492 -34.2623037 221.11450984 -34.2855939 237.86726148 C-34.3093236 255.07533995 -34.3217705 272.28339659 -34.32293582 289.49149168 C-34.32385168 299.14983515 -34.32958169 308.80812191 -34.34775543 318.46644974 C-34.36317828 326.691704 -34.36826401 334.91688402 -34.36001733 343.14215 C-34.35611852 347.33603612 -34.35700269 351.52977284 -34.37107468 355.72364044 C-34.38385985 359.56929483 -34.38257591 363.41468825 -34.37048396 367.26034252 C-34.36761756 369.29715649 -34.37942765 371.33397517 -34.39190602 373.37075293 C-34.33680459 383.67566637 -32.92725953 392.84937515 -28 402 C-28 402.99 -28 403.98 -28 405 C-27.01 405.33 -26.02 405.66 -25 406 C-23.5 407.5234375 -23.5 407.5234375 -22 409.375 C-20.09461622 411.70711035 -18.16240208 413.90195513 -16 416 C-20.28363224 416 -21.8571177 413.99608386 -24.9375 411.1875 C-33.15719476 402.46964192 -37.11105581 390.74882024 -37.13701439 378.9109354 C-37.14208893 377.67997531 -37.14716347 376.44901521 -37.15239179 375.18075329 C-37.15299341 373.81773225 -37.15349251 372.45471117 -37.15390015 371.09169006 C-37.1579169 369.64129676 -37.16235548 368.19090458 -37.1671797 366.74051374 C-37.17912745 362.75408432 -37.18478948 358.76766699 -37.18936086 354.78122318 C-37.19532384 350.48174491 -37.206932 346.18228104 -37.21765137 341.8828125 C-37.24216035 331.49838841 -37.2568008 321.11395956 -37.26971143 310.72951546 C-37.27342462 307.79533659 -37.27739775 304.86115819 -37.2814641 301.92697978 C-37.30670307 283.69741109 -37.32875134 265.46784162 -37.34119225 247.23825932 C-37.34412184 243.01683105 -37.34708351 238.79540281 -37.35009766 234.57397461 C-37.35084371 233.52478745 -37.35158976 232.47560029 -37.35235842 231.39461958 C-37.36500588 214.40707932 -37.39822161 197.41964387 -37.43989949 180.43215258 C-37.48236 162.9822745 -37.50589207 145.53245002 -37.51111281 128.08252043 C-37.51452236 118.2887938 -37.52622372 108.49523094 -37.55921555 98.70155525 C-37.58727387 90.35882455 -37.59819008 82.01629121 -37.58702008 73.673517 C-37.58184811 69.42055547 -37.58462443 65.16800684 -37.60948563 60.91510582 C-37.63210447 57.01303338 -37.63114166 53.11166742 -37.61228175 49.20958155 C-37.60949928 47.80638584 -37.6149816 46.40314092 -37.63009469 45.00002385 C-37.73043974 35.06754389 -36.17395068 26.98433944 -32 18 C-31.34 17.34 -30.68 16.68 -30 16 C-29.01 16 -28.02 16 -27 16 C-26.76539062 15.4225 -26.53078125 14.845 -26.2890625 14.25 C-22.07677456 6.89764288 -8.61743193 -2.67437543 0 0 Z " fill="#4E4E4E" transform="translate(120,88)"/>
<path d="M0 0 C0.99 0.33 1.98 0.66 3 1 C7.23110907 9.89738485 7.57380832 19.19770753 7.50120544 28.85929871 C7.50510738 30.31532673 7.51075493 31.77135092 7.51797634 33.22736627 C7.53262048 37.19218087 7.52261635 41.15659383 7.50823963 45.12139499 C7.49707058 49.41112381 7.50909181 53.700799 7.51808167 57.99052429 C7.53197488 66.37893789 7.52448751 74.76720038 7.50940608 83.15560671 C7.49250151 92.93196824 7.49576175 102.7082926 7.49950016 112.48466424 C7.50537133 129.93048044 7.49123515 147.37622434 7.46655273 164.82202148 C7.4426231 181.73773914 7.43555374 198.65336025 7.44604492 215.5690918 C7.45746087 234.0088193 7.45937668 252.44850222 7.44494683 270.88822919 C7.44342105 272.85527344 7.44190069 274.8223177 7.44038582 276.78936195 C7.439628 277.75708681 7.43887019 278.72481166 7.43808941 279.72186151 C7.43335269 286.53160876 7.4351936 293.34133605 7.43945122 300.15108299 C7.44438382 308.45090076 7.4383667 316.75062737 7.41855692 325.0504243 C7.40870356 329.28257914 7.40355871 333.51459533 7.41144943 337.74675751 C7.41853178 341.62473697 7.41164234 345.50243728 7.3938458 349.38038007 C7.38981789 350.77921272 7.3907732 352.17807103 7.39736467 353.57689395 C7.44417877 364.44627742 6.06950136 373.17150427 0.5 382.625 C-0.0878125 383.64851563 -0.675625 384.67203125 -1.28125 385.7265625 C-2.13203125 386.85191406 -2.13203125 386.85191406 -3 388 C-3.99 388 -4.98 388 -6 388 C-3.03 382.555 -3.03 382.555 0 377 C0.66 377 1.32 377 2 377 C2.144375 375.72125 2.28875 374.4425 2.4375 373.125 C2.70642746 370.74307106 2.92226346 369.15547309 4 367 C4.09831426 365.08922715 4.13101558 363.17496596 4.13422108 361.26166821 C4.14090784 359.41803764 4.14090784 359.41803764 4.14772969 357.53716201 C4.14764039 356.16069487 4.14745052 354.78422773 4.14717102 353.40776062 C4.15046872 351.95511918 4.15419408 350.50247866 4.1583125 349.04983932 C4.16835218 345.04329749 4.17205248 341.03677064 4.17470181 337.03021801 C4.17859929 332.71434761 4.1881783 328.39848914 4.19691467 324.08262634 C4.21669948 313.64949076 4.22674988 303.21635418 4.23564246 292.78320453 C4.24002387 287.870141 4.24539123 282.95707856 4.25063133 278.04401588 C4.26764902 261.70990949 4.28214152 245.37580377 4.28938007 229.04168987 C4.29128999 224.80049832 4.29321032 220.55930677 4.29516602 216.31811523 C4.29564976 215.26397864 4.2961335 214.20984205 4.2966319 213.12376193 C4.3049258 196.06100795 4.33024949 178.99832422 4.36274669 161.9356009 C4.39584005 144.41689115 4.41383107 126.89821706 4.41702431 109.37947589 C4.41918778 99.5438453 4.42791209 89.70831701 4.45348549 79.8727169 C4.47522395 71.49257236 4.48322761 63.11255496 4.47351871 54.73238542 C4.46898251 50.45937435 4.47082021 46.18662541 4.49028015 41.91365051 C4.50797451 37.99432213 4.50686378 34.07544589 4.49138286 30.15611229 C4.48901618 28.74544659 4.49328108 27.33474907 4.50521151 25.92413183 C4.57916918 16.59438791 3.24359475 8.75993195 0 0 Z " fill="#474747" transform="translate(710,109)"/>
<path d="M0 0 C1.48513662 -0.00346153 1.48513662 -0.00346153 3.000276 -0.006993 C6.33826441 -0.01231254 9.67606226 -0.00329258 13.01404095 0.00558662 C15.4231153 0.00471496 17.83218946 0.0029647 20.24126261 0.00040829 C25.48943305 -0.00313896 30.73756261 -0.00044986 35.98572636 0.00768471 C43.78956834 0.01974696 51.59338171 0.02035704 59.39723132 0.01860073 C72.52406524 0.0159718 85.65087904 0.02266005 98.7777071 0.03463554 C111.77724908 0.04646455 124.77678267 0.05416642 137.77632999 0.05634117 C138.58422647 0.05647865 139.39212294 0.05661613 140.22450113 0.05675778 C144.32730251 0.05743443 148.4301039 0.0580372 152.5329053 0.05861153 C181.60244381 0.06281374 210.67197137 0.07629234 239.74150372 0.09521675 C267.98434166 0.11358178 296.22717662 0.12775089 324.47001934 0.13623238 C325.77558479 0.13662695 325.77558479 0.13662695 327.1075253 0.1370295 C335.84810933 0.13966652 344.58869339 0.14221815 353.32927747 0.14470722 C371.13528074 0.14977982 388.94128381 0.15542232 406.7472868 0.16140938 C407.97535719 0.16182125 407.97535719 0.16182125 409.22823708 0.16224144 C463.91210724 0.18064663 518.59597119 0.21237904 573.27983379 0.24609566 C573.27983379 0.57609566 573.27983379 0.90609566 573.27983379 1.24609566 C572.06483247 1.24669275 570.84983115 1.24728983 569.59801161 1.24790502 C516.05235786 1.27448095 462.5067089 1.30599872 408.96107769 1.36273384 C408.15044944 1.36359135 407.33982118 1.36444886 406.50462844 1.36533235 C388.88758439 1.38399789 371.27054144 1.40355039 353.6534994 1.42401661 C345.01413319 1.43404781 336.37476676 1.443883 327.7354002 1.45361519 C326.8756784 1.454587 326.0159566 1.4555588 325.13018262 1.45656006 C297.26303984 1.48796846 269.39590674 1.50643358 241.52874932 1.51818812 C212.89214036 1.53033558 184.25557186 1.55553793 155.61898987 1.5971718 C151.57447415 1.60304591 147.52995823 1.60877074 143.48544216 1.61440468 C142.68942171 1.61551814 141.89340127 1.6166316 141.07325899 1.61777879 C128.25840714 1.63532005 115.44358641 1.63909523 102.62872416 1.63772487 C89.74612872 1.63664095 76.86361301 1.65005412 63.98104782 1.67825994 C56.32682303 1.69457811 48.67277861 1.69978608 41.01854293 1.68906741 C35.30290457 1.68228801 29.58746819 1.69631808 23.87187557 1.71843228 C21.55947198 1.72413167 19.24703988 1.72307621 16.93464477 1.7146081 C13.79137338 1.70408288 10.64912082 1.71815168 7.50591755 1.73828697 C6.60808471 1.72938326 5.71025187 1.72047955 4.78521198 1.71130604 C-1.76612232 1.7918156 -6.79941256 3.53843278 -12.72016621 6.24609566 C-14.19816356 6.85311724 -15.67716372 7.45770984 -17.15766621 8.05859566 C-30.23831336 14.00015722 -40.65682461 23.23203485 -49.72016621 34.24609566 C-50.38016621 33.91609566 -51.04016621 33.58609566 -51.72016621 33.24609566 C-50.29417913 30.08905959 -48.55725281 27.66580998 -46.28266621 25.05859566 C-45.68583027 24.36379097 -45.08899433 23.66898628 -44.47407246 22.95312691 C-42.72016621 21.24609566 -42.72016621 21.24609566 -39.72016621 20.24609566 C-39.39016621 19.25609566 -39.06016621 18.26609566 -38.72016621 17.24609566 C-33.49794398 14.24609566 -33.49794398 14.24609566 -30.72016621 14.24609566 C-30.72016621 13.58609566 -30.72016621 12.92609566 -30.72016621 12.24609566 C-27.72016621 10.24609566 -27.72016621 10.24609566 -24.72016621 10.24609566 C-24.72016621 9.58609566 -24.72016621 8.92609566 -24.72016621 8.24609566 C-22.34516621 7.18359566 -22.34516621 7.18359566 -19.72016621 6.24609566 C-19.06016621 6.57609566 -18.40016621 6.90609566 -17.72016621 7.24609566 C-17.72016621 6.58609566 -17.72016621 5.92609566 -17.72016621 5.24609566 C-13.16439978 -0.50855667 -6.69140451 -0.03812284 0 0 Z " fill="#1C1C1C" transform="translate(112.72016620635986,47.75390434265137)"/>
<path d="M0 0 C35.05863675 -0.02288432 70.11727198 -0.04050737 105.17591462 -0.05106533 C109.31405377 -0.05231605 113.4521929 -0.05361037 117.59033203 -0.05493164 C118.82608575 -0.05532511 118.82608575 -0.05532511 120.0868042 -0.05572652 C133.42966369 -0.0600789 146.77251889 -0.06796409 160.11537583 -0.0771528 C173.80437475 -0.08650131 187.49337142 -0.09205816 201.1823734 -0.09408849 C209.6305352 -0.09546122 218.07868483 -0.09979835 226.52684288 -0.10791647 C232.31851464 -0.11319869 238.11018011 -0.11480092 243.90185411 -0.11350138 C247.24430031 -0.11286032 250.58670807 -0.11439448 253.92915344 -0.11920547 C257.55293457 -0.12416659 261.17666326 -0.12298927 264.80044556 -0.12025452 C265.85687024 -0.12316736 266.91329492 -0.1260802 268.00173247 -0.12908131 C272.78214276 -0.11930282 277.30062875 -0.00623372 282 1 C282 1.33 282 1.66 282 2 C250.32 1.505 250.32 1.505 218 1 C218 1.66 218 2.32 218 3 C212.927993 3.04942365 207.85612606 3.08573068 202.78393555 3.10986328 C201.05832477 3.11992326 199.33273105 3.13357276 197.60717773 3.15087891 C195.1273986 3.17512754 192.64784477 3.18648301 190.16796875 3.1953125 C189.39599655 3.20563507 188.62402435 3.21595764 187.82865906 3.22659302 C184.00718524 3.22739422 182.25863893 3.17242595 179 1 C179 1.66 179 2.32 179 3 C176.69 3 174.38 3 172 3 C172 2.67 172 2.34 172 2 C161.11 1.505 161.11 1.505 150 1 C150 1.66 150 2.32 150 3 C147.41638482 3.05407567 144.83390745 3.093707 142.25 3.125 C141.52039063 3.14175781 140.79078125 3.15851563 140.0390625 3.17578125 C136.1955376 3.21072239 133.25393228 3.17499684 130 1 C130 1.66 130 2.32 130 3 C129.44701359 2.83826325 128.89402718 2.67652651 128.3242836 2.50988865 C125.75621949 1.94652076 123.44071827 1.86040995 120.8114624 1.84178162 C119.76260864 1.8319928 118.71375488 1.82220398 117.63311768 1.81211853 C116.4880072 1.80636307 115.34289673 1.8006076 114.16308594 1.79467773 C112.95305908 1.78477814 111.74303223 1.77487854 110.49633789 1.76467896 C107.18263614 1.73851401 103.86895819 1.71664258 100.55521679 1.69667697 C97.0905163 1.67478759 93.62585926 1.64741336 90.16119385 1.62062073 C83.6023137 1.57073372 77.04340939 1.52578011 70.48448205 1.48259836 C63.01654626 1.43319184 55.54865408 1.37828639 48.08076048 1.32291877 C32.72054729 1.20916002 17.36029398 1.10230772 2 1 C1.67 1.66 1.34 2.32 1 3 C0.67 2.01 0.34 1.02 0 0 Z " fill="#282828" transform="translate(394,88)"/>
<path d="M0 0 C0.33 0 0.66 0 1 0 C1.04575862 44.86797773 1.08100964 89.73595298 1.10213066 134.60394944 C1.10463213 139.89872674 1.10722077 145.19350401 1.10986328 150.48828125 C1.1103879 151.5423944 1.11091252 152.59650755 1.11145304 153.68256353 C1.12016019 170.75984691 1.13593187 187.83711685 1.15430559 204.91439225 C1.17299601 222.43187261 1.18411491 239.94934593 1.18817699 257.46683586 C1.19092383 268.27963774 1.19960551 279.09240163 1.21583293 289.90519182 C1.22638922 297.3157748 1.2296037 304.72633808 1.22700275 312.13692804 C1.22571935 316.41506034 1.22771323 320.69312618 1.23841095 324.97124672 C1.24813142 328.88709095 1.24864274 332.8028239 1.24179779 336.71867321 C1.24095158 338.13600028 1.24349885 339.55333425 1.24976636 340.97064771 C1.25778888 342.89667589 1.25227297 344.82274622 1.24609566 346.7487812 C1.2468551 347.81883309 1.24761454 348.88888499 1.24839699 349.99136269 C0.97890066 353.2555597 0.15290677 355.94472865 -1 359 C-1.66 358.67 -2.32 358.34 -3 358 C-2.85885572 357.30288399 -2.71771144 356.60576797 -2.57229006 355.88752723 C-1.041461 347.67626537 -0.70922428 339.75998416 -0.7215271 331.42144775 C-0.7165135 329.983907 -0.71063462 328.54636905 -0.70397437 327.10883498 C-0.68828898 323.19098791 -0.68475006 319.27321277 -0.68332577 315.3553381 C-0.67961153 311.11827014 -0.6644461 306.88124073 -0.65071106 302.64419556 C-0.62849767 295.3139512 -0.61344888 287.98372068 -0.60334396 280.65345001 C-0.5887237 270.05527137 -0.56317757 259.45714091 -0.53501268 248.85899064 C-0.48960538 231.66186592 -0.45296557 214.46473425 -0.421875 197.26757812 C-0.39166459 180.56769591 -0.3573029 163.8678307 -0.31738281 147.16796875 C-0.31492126 146.13762096 -0.31245972 145.10727317 -0.30992357 144.04570273 C-0.29754849 138.87646152 -0.28509205 133.70722051 -0.27259517 128.5379796 C-0.16911819 85.69201013 -0.07988504 42.84601952 0 0 Z " fill="#010101" transform="translate(713,125)"/>
<path d="M0 0 C27.71214872 -0.04675297 55.42429151 -0.08200502 83.13647175 -0.10362434 C96.00416191 -0.11393007 108.87182754 -0.12797699 121.73950195 -0.15087891 C132.95699286 -0.17083428 144.17446599 -0.18372155 155.39197415 -0.18817699 C161.32968577 -0.19078072 167.26734657 -0.19688605 173.20504189 -0.21146011 C178.79868231 -0.22507791 184.39225117 -0.22921415 189.9859066 -0.22621536 C192.03407557 -0.22676365 194.08224703 -0.23071598 196.13040161 -0.23841095 C224.45689435 -0.33957594 224.45689435 -0.33957594 236 9 C239.19440576 12.18513317 242.15109124 15.50393172 245 19 C244.67 19.66 244.34 20.32 244 21 C243.67 21 243.34 21 243 21 C242.67 21.66 242.34 22.32 242 23 C240.33333333 19.66666667 238.66666667 16.33333333 237 13 C235.68 13 234.36 13 233 13 C231.97895449 12.02149805 230.9793879 11.02019573 230 10 C227.89667109 9.28552357 227.89667109 9.28552357 226 9 C226 8.34 226 7.68 226 7 C224.02 6.505 224.02 6.505 222 6 C222.33 5.34 222.66 4.68 223 4 C222.01 4 221.02 4 220 4 C216.43390967 3.59077652 212.917122 3.17947574 209.39447594 2.49011326 C205.40218809 1.9136846 201.48154506 1.84680106 197.45791626 1.84178162 C196.61157792 1.83684364 195.76523959 1.83190566 194.89325464 1.82681805 C192.06506881 1.81149333 189.23690559 1.80309608 186.40869141 1.79467773 C184.37827354 1.78509526 182.34785766 1.77508496 180.31744385 1.76467896 C174.80972302 1.73766388 169.30199365 1.71663591 163.79424334 1.69667697 C158.03667174 1.67479647 152.27912636 1.64741788 146.52157593 1.62062073 C135.62075536 1.57072177 124.71992022 1.52577255 113.81907117 1.48259836 C101.40802629 1.4332021 88.99700771 1.37829282 76.58598828 1.32291877 C51.05735008 1.20914165 25.52868662 1.1022933 0 1 C0 0.67 0 0.34 0 0 Z " fill="#131313" transform="translate(464,87)"/>
<path d="M0 0 C5.03486292 3.97663834 8.93760402 8.13725946 12.625 13.375 C13.1001001 14.03765869 13.5752002 14.70031738 14.06469727 15.38305664 C17.22055015 19.81452931 20.32615597 24.25711 23 29 C23.36609375 29.62777344 23.7321875 30.25554687 24.109375 30.90234375 C31.9413269 45.23254559 31.35641846 64.52364043 31.31567383 80.47290039 C31.31249848 83.06373676 31.33614248 85.65344281 31.36132812 88.24414062 C31.39842774 98.54718003 30.50437301 107.98535059 28 118 C28.66 118.33 29.32 118.66 30 119 C29.525625 119.391875 29.05125 119.78375 28.5625 120.1875 C26.64820367 122.40808374 26.38733012 124.13375709 26 127 C25.34 127 24.68 127 24 127 C23.67 127.99 23.34 128.98 23 130 C23.11442461 128.39504433 23.24194694 126.79101881 23.375 125.1875 C23.44460938 124.29417969 23.51421875 123.40085937 23.5859375 122.48046875 C24 120 24 120 26 117 C28.97816495 105.75859812 29.49011205 94.68374759 29.375 83.125 C29.37200897 82.33928619 29.36901794 81.55357239 29.36593628 80.74404907 C29.3144042 69.20247749 28.53808204 58.29643767 26 47 C25.64731505 44.66951317 25.3081808 42.33678843 25 40 C24.34 40 23.68 40 23 40 C22.67128906 39.06800781 22.34257813 38.13601562 22.00390625 37.17578125 C18.51419287 27.68060207 14.11096321 20.06778327 8 12 C7.39285156 11.19304687 6.78570313 10.38609375 6.16015625 9.5546875 C5.1806475 8.25665879 4.19291429 6.96472512 3.19140625 5.68359375 C1.90630172 3.86759358 0.97508954 1.99621998 0 0 Z " fill="#525252" transform="translate(586,211)"/>
<path d="M0 0 C3.78636058 0.07094516 7.57272544 0.1249791 11.359375 0.17797852 C13.79689297 0.22058246 16.23439403 0.2641673 18.671875 0.30883789 C20.34715271 0.33087029 20.34715271 0.33087029 22.05627441 0.35334778 C32.13266712 0.5724351 40.40829446 1.83731745 49.265625 6.75805664 C49.265625 7.08805664 49.265625 7.41805664 49.265625 7.75805664 C47.86869561 7.66979749 46.47302048 7.5616083 45.078125 7.44555664 C44.30082031 7.38754883 43.52351562 7.32954102 42.72265625 7.26977539 C40.265625 6.75805664 40.265625 6.75805664 38.33601379 5.25309753 C33.57521828 2.93495984 28.91063889 3.31888806 23.68237305 3.32568359 C22.51121445 3.31549194 21.34005585 3.30530029 20.13340759 3.2947998 C16.26467129 3.26462031 12.3961824 3.25539596 8.52734375 3.24633789 C5.84404225 3.22949489 3.16077377 3.21149083 0.47749329 3.19194031 C-5.86177209 3.14829934 -12.2010118 3.11973771 -18.54038161 3.09661692 C-25.75929967 3.0695523 -32.97808466 3.02564162 -40.19690764 2.9803282 C-55.04265587 2.88751644 -69.88844738 2.81581988 -84.734375 2.75805664 C-84.734375 2.42805664 -84.734375 2.09805664 -84.734375 1.75805664 C-83.55633301 1.73300049 -82.37829102 1.70794434 -81.16455078 1.68212891 C-76.70256622 1.58640465 -72.24067937 1.48661992 -67.77880859 1.38574219 C-65.86476969 1.34300524 -63.95070737 1.30130188 -62.03662109 1.26074219 C-49.12708421 1.00426639 -49.12708421 1.00426639 -36.23397827 0.34552002 C-24.1552294 -0.47164767 -12.09759444 -0.23331527 0 0 Z " fill="#C4C4C4" transform="translate(645.734375,82.241943359375)"/>
<path d="M0 0 C0.33 0 0.66 0 1 0 C1.00238835 0.81353565 1.00477671 1.6270713 1.00723743 2.46525955 C1.06647873 22.29775119 1.14208703 42.13012223 1.23571491 61.96248245 C1.28060237 71.55342761 1.32003318 81.14433623 1.34643555 90.73535156 C1.36947285 99.09885903 1.40293455 107.46225015 1.44870156 115.82566524 C1.47255672 120.25042469 1.49133584 124.67506946 1.49761391 129.09989166 C1.50369984 133.27288741 1.5238249 137.44559004 1.55427551 141.61847687 C1.56299991 143.14211993 1.56679006 144.66580139 1.56500816 146.18946838 C1.55591963 157.55657138 2.52935488 167.84023049 8 178 C8 178.99 8 179.98 8 181 C8.99 181.33 9.98 181.66 11 182 C12.5 183.5234375 12.5 183.5234375 14 185.375 C15.90538378 187.70711035 17.83759792 189.90195513 20 192 C15.71636776 192 14.1428823 189.99608386 11.0625 187.1875 C0.80730386 176.31077682 -0.44408878 163.97180346 -0.34057617 149.73999023 C-0.33972882 148.10321569 -0.34020714 146.46644002 -0.34190369 144.82966614 C-0.34276086 140.40875131 -0.32518028 135.988083 -0.30418181 131.56722522 C-0.28536855 126.93879636 -0.28366092 122.31036122 -0.28010559 117.68190002 C-0.27079875 108.92731841 -0.24620346 100.17284981 -0.21605712 91.41831785 C-0.18247066 81.44733537 -0.16601644 71.47634735 -0.15097082 61.50532234 C-0.11965265 41.00348526 -0.06691872 20.50174976 0 0 Z " fill="#3A3A3A" transform="translate(84,312)"/>
<path d="M0 0 C30.36 0 60.72 0 92 0 C91.67 0.99 91.34 1.98 91 3 C60.97 2.67 30.94 2.34 0 2 C0 1.34 0 0.68 0 0 Z " fill="#A1A1A1" transform="translate(238,275)"/>
<path d="M0 0 C1 2 1 2 0.43359375 4.03125 C-4.71262511 16.78580028 -12.37689056 29.16115875 -24 37 C-26.16796875 36.61328125 -26.16796875 36.61328125 -28 36 C-27.37351562 35.45730469 -26.74703125 34.91460937 -26.1015625 34.35546875 C-24.87566406 33.28232422 -24.87566406 33.28232422 -23.625 32.1875 C-22.40683594 31.12595703 -22.40683594 31.12595703 -21.1640625 30.04296875 C-18.83816812 28.00018747 -18.83816812 28.00018747 -17 25 C-16.34 25 -15.68 25 -15 25 C-14.62875 23.948125 -14.62875 23.948125 -14.25 22.875 C-13 20 -13 20 -11.0625 17.1875 C-8.69550377 13.52941492 -7.41696657 10.10920304 -6 6 C-5.34 6 -4.68 6 -4 6 C-3.67 4.35 -3.34 2.7 -3 1 C-2.01 0.67 -1.02 0.34 0 0 Z " fill="#383838" transform="translate(567,328)"/>
<path d="M0 0 C-3.15462495 2.1030833 -5.83520402 2.97644186 -9.4375 4.125 C-24.36399631 9.21939381 -36.11069425 19.98220129 -46 32 C-46.66 31.67 -47.32 31.34 -48 31 C-46.57401292 27.84296394 -44.8370866 25.41971432 -42.5625 22.8125 C-41.96566406 22.11769531 -41.36882812 21.42289063 -40.75390625 20.70703125 C-39 19 -39 19 -36 18 C-35.67 17.01 -35.34 16.02 -35 15 C-29.77777778 12 -29.77777778 12 -27 12 C-27 11.34 -27 10.68 -27 10 C-24 8 -24 8 -21 8 C-21 7.34 -21 6.68 -21 6 C-18.625 4.9375 -18.625 4.9375 -16 4 C-15.34 4.33 -14.68 4.66 -14 5 C-14 4.34 -14 3.68 -14 3 C-9.03006806 0.56574762 -5.65394631 -0.34615998 0 0 Z " fill="#1D1D1D" transform="translate(109,50)"/>
<path d="M0 0 C10.82137048 2.5093033 18.25150213 9.47558164 25 18 C24.67 18.66 24.34 19.32 24 20 C23.67 20 23.34 20 23 20 C22.67 20.66 22.34 21.32 22 22 C20.33333333 18.66666667 18.66666667 15.33333333 17 12 C15.68 12 14.36 12 13 12 C11.97895449 11.02149805 10.9793879 10.02019573 10 9 C7.89667109 8.28552357 7.89667109 8.28552357 6 8 C6 7.34 6 6.68 6 6 C4.68 5.67 3.36 5.34 2 5 C2.33 4.34 2.66 3.68 3 3 C2.01 2.01 1.02 1.02 0 0 Z " fill="#222222" transform="translate(684,88)"/>
<path d="M0 0 C4.98293175 3.95204327 8.9391075 8.0748311 12.625 13.25 C13.0979248 13.90822754 13.57084961 14.56645508 14.05810547 15.24462891 C19.72415462 23.26809968 23.51818827 30.04255755 24 40 C21.53287873 37.53287873 21.05196059 35.49093694 19.9375 32.1875 C16.18482252 22.15075312 9.75109756 14.07476582 3.19140625 5.68359375 C1.90630172 3.86759358 0.97508954 1.99621998 0 0 Z " fill="#808080" transform="translate(586,211)"/>
<path d="M0 0 C12.54 0 25.08 0 38 0 C38.495 1.98 38.495 1.98 39 4 C38.34 4 37.68 4 37 4 C37 3.34 37 2.68 37 2 C26.77 2 16.54 2 6 2 C5.67 2.66 5.34 3.32 5 4 C2.525 3.01 2.525 3.01 0 2 C0 1.34 0 0.68 0 0 Z " fill="#A1A1A1" transform="translate(196,183)"/>
<path d="M0 0 C-0.33 0.66 -0.66 1.32 -1 2 C-3.32383502 2.281765 -5.66176824 2.45171684 -8 2.5625 C-12.32140135 2.38416046 -12.32140135 2.38416046 -16 4 C-18.86267567 4.07325168 -21.700719 4.09238205 -24.5625 4.0625 C-25.36880859 4.05798828 -26.17511719 4.05347656 -27.00585938 4.04882812 C-29.00393756 4.03700518 -31.00197783 4.01906914 -33 4 C-24.2434895 -1.83767367 -10.21735016 -0.23884715 0 0 Z " fill="#9F9F9F" transform="translate(461,182)"/>
<path d="M0 0 C1.921875 0.33984375 1.921875 0.33984375 4 1 C5.25 3.5625 5.25 3.5625 6 6 C6.66 6 7.32 6 8 6 C10.1519437 9.22791555 10.20086443 10.28400809 10 14 C10.66 14 11.32 14 12 14 C12.6875 16.3125 12.6875 16.3125 13 19 C11.51953125 20.66796875 11.51953125 20.66796875 10 22 C9.69707031 21.16597656 9.39414062 20.33195312 9.08203125 19.47265625 C6.53726901 12.63703336 3.78820981 6.23845616 0 0 Z " fill="#1C1C1C" transform="translate(739,85)"/>
<path d="M0 0 C-0.8353125 0.32871094 -0.8353125 0.32871094 -1.6875 0.6640625 C-10.83608793 4.46567167 -17.69012194 10.42888621 -25 17 C-25 16.01 -25 15.02 -25 14 C-24.01 13.67 -23.02 13.34 -22 13 C-21.85691406 12.39285156 -21.71382813 11.78570312 -21.56640625 11.16015625 C-20.41017023 6.75051128 -15.64783104 4.38026711 -12 2 C-7.86381625 -0.13317169 -4.57213482 -1.45339385 0 0 Z " fill="#1F1F1F" transform="translate(120,88)"/>
<path d="M0 0 C0.28617187 0.57621094 0.57234375 1.15242188 0.8671875 1.74609375 C1.58896507 3.18218223 2.32218296 4.61261796 3.0703125 6.03515625 C3.41835937 6.70417969 3.76640625 7.37320312 4.125 8.0625 C4.47820312 8.73410156 4.83140625 9.40570313 5.1953125 10.09765625 C6 12 6 12 6 15 C6.99 15.33 7.98 15.66 9 16 C10.5 17.5234375 10.5 17.5234375 12 19.375 C13.90538378 21.70711035 15.83759792 23.90195513 18 26 C13.71796796 26 12.14454604 24.00082073 9.0703125 21.1875 C3.0593072 14.83624911 0.2805883 8.69823738 0 0 Z " fill="#2A2A2A" transform="translate(86,478)"/>
<path d="M0 0 C0.66 0.33 1.32 0.66 2 1 C-7.68128768 12.59400409 -7.68128768 12.59400409 -12 15 C-14.20703125 14.65234375 -14.20703125 14.65234375 -16 14 C-15.37351562 13.45730469 -14.74703125 12.91460937 -14.1015625 12.35546875 C-13.28429687 11.64003906 -12.46703125 10.92460937 -11.625 10.1875 C-10.40683594 9.12595703 -10.40683594 9.12595703 -9.1640625 8.04296875 C-6.83816812 6.00018747 -6.83816812 6.00018747 -5 3 C-2.5 1.25 -2.5 1.25 0 0 Z " fill="#4D4D4D" transform="translate(555,350)"/>
<path d="M0 0 C-3.17346047 2.11564031 -5.94733051 3.05949413 -9.5625 4.25 C-15.92686261 6.46397869 -21.41410319 9.25461757 -27 13 C-27 12.01 -27 11.02 -27 10 C-24 8 -24 8 -21 8 C-21 7.34 -21 6.68 -21 6 C-18.625 4.9375 -18.625 4.9375 -16 4 C-15.34 4.33 -14.68 4.66 -14 5 C-14 4.34 -14 3.68 -14 3 C-9.03006806 0.56574762 -5.65394631 -0.34615998 0 0 Z " fill="#2D2D2D" transform="translate(109,50)"/>
<path d="M0 0 C0.33 0.66 0.66 1.32 1 2 C0.2575 2.70125 -0.485 3.4025 -1.25 4.125 C-4.94281191 7.985667 -7.60748498 11.87967577 -9.625 16.8125 C-11 20 -11 20 -13 21 C-12.5461336 15.55360322 -11.39843274 10.42335689 -8 6 C-5.93359375 5.3984375 -5.93359375 5.3984375 -4 5 C-2.8499169 3.03327085 -2.8499169 3.03327085 -2 1 C-1.34 0.67 -0.68 0.34 0 0 Z " fill="#5A5A5A" transform="translate(97,99)"/>
<path d="M0 0 C1.4540625 0.0309375 1.4540625 0.0309375 2.9375 0.0625 C1.9475 0.7225 0.9575 1.3825 -0.0625 2.0625 C-0.38862375 4.23778363 -0.38862375 4.23778363 -0.1875 6.625 C-0.11655352 8.10305167 -0.06829155 9.58275793 -0.0625 11.0625 C-0.3925 11.3925 -0.7225 11.7225 -1.0625 12.0625 C-1.29325082 13.40997084 -1.47403063 14.76627565 -1.625 16.125 C-1.769375 17.424375 -1.91375 18.72375 -2.0625 20.0625 C-2.3925 20.0625 -2.7225 20.0625 -3.0625 20.0625 C-3.25844676 16.91713232 -3.4428401 13.77119386 -3.625 10.625 C-3.68107422 9.72716797 -3.73714844 8.82933594 -3.79492188 7.90429688 C-3.84326172 7.05029297 -3.89160156 6.19628906 -3.94140625 5.31640625 C-3.9885376 4.52564697 -4.03566895 3.7348877 -4.08422852 2.92016602 C-4.04658221 -0.29838198 -3.23489019 0.06601817 0 0 Z " fill="#747474" transform="translate(424.0625,183.9375)"/>
<path d="M0 0 C0.66 0 1.32 0 2 0 C1.83578347 7.22552735 -1.71283266 13.29937793 -6 19 C-6.99 19 -7.98 19 -9 19 C-7.02 15.37 -5.04 11.74 -3 8 C-2.34 8 -1.68 8 -1 8 C-0.67 5.36 -0.34 2.72 0 0 Z " fill="#262626" transform="translate(713,478)"/>
<path d="M0 0 C5.61624227 1.7018916 10.25797151 5.16793028 13.3359375 10.171875 C14.29120675 12.08241349 15.15448992 14.03841662 16 16 C12.43611093 14.81203698 11.84126818 13.7405195 9.6875 10.75 C6.76714877 6.84791368 3.82614451 3.98625913 0 1 C0 0.67 0 0.34 0 0 Z " fill="#7A7A7A" transform="translate(696,93)"/>
<path d="M0 0 C5.36463034 4.26980782 10.64344953 8.92729355 14 15 C13.6875 17.2734375 13.6875 17.2734375 13 19 C9.38896059 14.45899428 5.94536005 10.00711208 3 5 C2.443125 4.443125 1.88625 3.88625 1.3125 3.3125 C0.879375 2.879375 0.44625 2.44625 0 2 C0 1.34 0 0.68 0 0 Z " fill="#939393" transform="translate(586,211)"/>
<path d="M0 0 C3.13847309 3.13847309 3.89496333 4.87421672 5.25 9 C5.60578125 10.051875 5.9615625 11.10375 6.328125 12.1875 C7 15 7 15 6 18 C5.34 17.34 4.68 16.68 4 16 C3.67 16 3.34 16 3 16 C2.01 10.72 1.02 5.44 0 0 Z " fill="#474747" transform="translate(608,240)"/>
<path d="M0 0 C0.33 0.66 0.66 1.32 1 2 C-0.335285 5.87232651 -3.12179977 8.19375477 -6 11 C-6.66 11.99 -7.32 12.98 -8 14 C-7.125 8.25 -7.125 8.25 -6 6 C-5.34 6 -4.68 6 -4 6 C-3.67 4.35 -3.34 2.7 -3 1 C-2.01 0.67 -1.02 0.34 0 0 Z " fill="#1F1F1F" transform="translate(567,328)"/>
<path d="M0 0 C0.7425 0.2475 1.485 0.495 2.25 0.75 C1.54875 1.306875 0.8475 1.86375 0.125 2.4375 C-2.86344261 4.84124732 -5.80940238 7.28810432 -8.75 9.75 C-8.75 8.43 -8.75 7.11 -8.75 5.75 C-8.09 5.75 -7.43 5.75 -6.75 5.75 C-6.75 5.09 -6.75 4.43 -6.75 3.75 C-3.60436893 -0.3276699 -3.60436893 -0.3276699 0 0 Z " fill="#909090" transform="translate(104.75,90.25)"/>
<path d="M0 0 C0.68359375 1.765625 0.68359375 1.765625 1 4 C-0.21484375 5.921875 -0.21484375 5.921875 -1.9375 7.75 C-2.50339844 8.36359375 -3.06929688 8.9771875 -3.65234375 9.609375 C-4.31943359 10.29773438 -4.31943359 10.29773438 -5 11 C-5.66 10.67 -6.32 10.34 -7 10 C-5.33248852 6.05860922 -2.77289351 3.2107188 0 0 Z " fill="#171717" transform="translate(68,71)"/>
<path d="M0 0 C-0.61488281 0.26554687 -1.22976562 0.53109375 -1.86328125 0.8046875 C-2.67152344 1.15789062 -3.47976562 1.51109375 -4.3125 1.875 C-5.11300781 2.22304687 -5.91351563 2.57109375 -6.73828125 2.9296875 C-9.1961834 4.02571894 -9.1961834 4.02571894 -12 6 C-14.1875 5.625 -14.1875 5.625 -16 5 C-6.34877384 -1.89373297 -6.34877384 -1.89373297 0 0 Z " fill="#474747" transform="translate(120,88)"/>
<path d="M0 0 C5.51635966 1.37908991 9.86958227 4.1421479 14 8 C14 8.66 14 9.32 14 10 C10.55031331 8.46680592 7.93051669 6.35870856 5 4 C4.071875 3.443125 3.14375 2.88625 2.1875 2.3125 C1.465625 1.879375 0.74375 1.44625 0 1 C0 0.67 0 0.34 0 0 Z " fill="#515151" transform="translate(570,198)"/>
<path d="M0 0 C0.33 0.66 0.66 1.32 1 2 C-0.66666667 3.66666667 -2.33333333 5.33333333 -4 7 C-4.556875 7.598125 -5.11375 8.19625 -5.6875 8.8125 C-7 10 -7 10 -9 10 C-8.67 8.68 -8.34 7.36 -8 6 C-7.38125 5.9175 -6.7625 5.835 -6.125 5.75 C-3.8234856 5.20005805 -3.8234856 5.20005805 -2.875 3 C-2.441875 2.01 -2.441875 2.01 -2 1 C-1.34 0.67 -0.68 0.34 0 0 Z " fill="#606060" transform="translate(97,99)"/>
<path d="M0 0 C3.59412911 1.33496224 6.92170156 2.69127617 10 5 C10.8125 7.6875 10.8125 7.6875 11 10 C7.19364503 6.79239749 3.45436433 3.59253891 0 0 Z " fill="#2D2D2D" transform="translate(720,65)"/>
<path d="M0 0 C1.48199902 0.44909061 2.96055236 0.90956564 4.4375 1.375 C5.26121094 1.63023438 6.08492187 1.88546875 6.93359375 2.1484375 C9 3 9 3 10 5 C8.68 4.67 7.36 4.34 6 4 C6 4.66 6 5.32 6 6 C4.68 5.67 3.36 5.34 2 5 C2.33 4.34 2.66 3.68 3 3 C2.01 2.01 1.02 1.02 0 0 Z " fill="#303030" transform="translate(684,88)"/>
<path d="M0 0 C3.21524305 1.40844718 5.32183868 3.10344786 7.75 5.625 C8.67039062 6.57246094 8.67039062 6.57246094 9.609375 7.5390625 C10.29773438 8.26222656 10.29773438 8.26222656 11 9 C10.67 9.66 10.34 10.32 10 11 C9.52949219 10.51789063 9.05898438 10.03578125 8.57421875 9.5390625 C7.95160156 8.90742188 7.32898438 8.27578125 6.6875 7.625 C6.07261719 6.99851563 5.45773437 6.37203125 4.82421875 5.7265625 C2.91187472 3.81913393 2.91187472 3.81913393 0 2 C0 1.34 0 0.68 0 0 Z " fill="#4D4D4D" transform="translate(584,208)"/>
<path d="M0 0 C3.81684226 1.55500981 6.19195732 4.03595495 9 7 C4.68381834 7 3.07210341 4.86729652 0 2 C0 1.34 0 0.68 0 0 Z " fill="#1E1E1E" transform="translate(95,497)"/>
<path d="M0 0 C0.66 1.32 1.32 2.64 2 4 C0.68 4.33 -0.64 4.66 -2 5 C-2.33 6.65 -2.66 8.3 -3 10 C-3.99928333 7.301935 -4.03624754 6.11989571 -3.1875 3.3125 C-2 1 -2 1 0 0 Z " fill="#0E0E0E" transform="translate(566,324)"/>
<path d="M0 0 C4.51290803 3.33562767 6.68206814 5.33289301 8 11 C2.19794344 5.35475578 2.19794344 5.35475578 0 2 C0 1.34 0 0.68 0 0 Z " fill="#454545" transform="translate(595,219)"/>
<path d="M0 0 C1.31878578 0.76002917 2.6298684 1.53343653 3.9375 2.3125 C4.66839844 2.74175781 5.39929688 3.17101562 6.15234375 3.61328125 C8 5 8 5 9 8 C5.08158173 6.69386058 2.67359191 5.16870152 0 2 C0 1.34 0 0.68 0 0 Z " fill="#A6A6A6" transform="translate(576,203)"/>
<path d="M0 0 C2 1 2 1 3 3 C-1.43076923 5.09230769 -1.43076923 5.09230769 -4.3125 4.625 C-4.869375 4.41875 -5.42625 4.2125 -6 4 C-4.02 2.68 -2.04 1.36 0 0 Z " fill="#A2A2A2" transform="translate(110,86)"/>
<path d="M0 0 C4.87362847 0.45336079 7.39042389 1.7089159 11 5 C10.67 5.66 10.34 6.32 10 7 C8.33073546 6.02526874 6.66464358 5.04510211 5 4.0625 C4.071875 3.51722656 3.14375 2.97195312 2.1875 2.41015625 C1.465625 1.94480469 0.74375 1.47945312 0 1 C0 0.67 0 0.34 0 0 Z " fill="#383838" transform="translate(709,58)"/>
<path d="M0 0 C0.66 0.33 1.32 0.66 2 1 C-0.31 3.64 -2.62 6.28 -5 9 C-5 4.61031544 -2.87194899 3.23094261 0 0 Z " fill="#575757" transform="translate(555,350)"/>
<path d="M0 0 C4.3890815 0.51035831 7.33708062 1.52214277 11 4 C9.4375 4.75 9.4375 4.75 7 5 C4.49713591 3.86915563 2.32992278 2.47860484 0 1 C0 0.67 0 0.34 0 0 Z " fill="#CACACA" transform="translate(684,85)"/>
<path d="M0 0 C1.625 1.6875 1.625 1.6875 3 4 C2.1875 6.75 2.1875 6.75 1 9 C-1 6 -1 6 -0.625 2.8125 C-0.41875 1.884375 -0.2125 0.95625 0 0 Z " fill="#1E1E1E" transform="translate(709,108)"/>
<path d="M0 0 C0.66 0.66 1.32 1.32 2 2 C1.63318342 4.93453261 1.13562754 5.86437246 -1 8 C-1.33 6.02 -1.66 4.04 -2 2 C-1.34 2 -0.68 2 0 2 C0 1.34 0 0.68 0 0 Z " fill="#111111" transform="translate(750,99)"/>
<path d="M0 0 C0 2 0 4 0 6 C-2.5 7.6875 -2.5 7.6875 -5 9 C-3.7508258 5.54074837 -2.32472205 2.85306797 0 0 Z " fill="#2E2E2E" transform="translate(557,344)"/>
<path d="M0 0 C0.99 0.33 1.98 0.66 3 1 C1.02 3.97 1.02 3.97 -1 7 C-1.66 6.67 -2.32 6.34 -3 6 C-3 5.01 -3 4.02 -3 3 C-2.01 3 -1.02 3 0 3 C0 2.01 0 1.02 0 0 Z " fill="#161616" transform="translate(59,82)"/>
</svg>
